<svg xmlns="http://www.w3.org/2000/svg" version="1.1" xmlns:xlink="http://www.w3.org/1999/xlink" xmlns:svgjs="http://svgjs.dev/svgjs" width="1000" height="499" viewBox="0 0 1000 499"><g transform="matrix(1,0,0,1,-0.6060606060606233,0.30285711857089836)"><svg viewBox="0 0 396 198" data-background-color="#551e19" preserveAspectRatio="xMidYMid meet" height="499" width="1000" xmlns="http://www.w3.org/2000/svg" xmlns:xlink="http://www.w3.org/1999/xlink"><g id="tight-bounds" transform="matrix(1,0,0,1,0.2400000000000091,-0.12017176247903194)"><svg viewBox="0 0 395.52 198.24034352495806" height="198.24034352495806" width="395.52"><g><svg viewBox="0 0 395.52 198.24034352495806" height="198.24034352495806" width="395.52"><g transform="matrix(1,0,0,1,0,147.50058978119768)"><svg viewBox="0 0 395.52 50.739753743760396" height="50.739753743760396" width="395.52"><g id="textblocktransform"><svg viewBox="0 0 395.52 50.739753743760396" height="50.739753743760396" width="395.52" id="textblock"><g><svg viewBox="0 0 395.52 50.739753743760396" height="50.739753743760396" width="395.52"><g transform="matrix(1,0,0,1,0,0)"><svg width="395.52" viewBox="2 -38 300.48 38.55" height="50.739753743760396" data-palette-color="#ffffff"><path d="M14 0Q12.3 0 11-0.83 9.7-1.65 9.4-2.9L9.4-2.9Q9.3-3.2 8.5-6.9L8.5-6.9Q7.25-13.15 5.55-18.7L5.55-18.7Q4.4-22.55 3.65-25.5L3.65-25.5 2.15-30.9Q2-31.45 2-31.9L2-31.9Q2-33.45 3.2-34.38 4.4-35.3 6.2-35.3L6.2-35.3Q7.4-35.3 8.18-34.77 8.95-34.25 9.25-33L9.25-33Q9.6-31.5 9.93-30.38 10.25-29.25 10.45-28.4L10.45-28.4Q11.7-24.15 12.5-20.35L12.5-20.35Q12.75-19.25 13.4-15.8L13.4-15.8Q13.85-13.65 14.25-11.85 14.65-10.05 14.8-10.05L14.8-10.05Q14.95-10.05 15.33-11 15.7-11.95 15.98-12.78 16.25-13.6 16.4-14.05L16.4-14.05Q16.6-14.75 17.45-17.15L17.45-17.15Q18.15-19 18.57-19.93 19-20.85 19.7-21.55 20.4-22.25 21.4-22.25L21.4-22.25Q22.8-22.25 23.7-21 24.6-19.75 25.55-17.05L25.55-17.05Q28-10.15 28.5-10.15L28.5-10.15Q28.8-10.15 29.65-15.55L29.65-15.55Q29.85-16.55 30.05-17.73 30.25-18.9 30.5-20.25L30.5-20.25Q31.8-26.95 33.2-32.95L33.2-32.95Q33.75-35.25 36.55-35.25L36.55-35.25Q38.3-35.25 39.45-34.35 40.6-33.45 40.6-32.05L40.6-32.05Q40.6-31.65 40.45-31.1L40.45-31.1Q39.35-26.95 38.15-21.7L38.15-21.7 37.45-18.75Q36.65-15.4 35.83-11.3 35-7.2 34.75-6.05L34.75-6.05 34.2-3.2Q33.9-1.7 32.75-0.9 31.6-0.1 29.8-0.1L29.8-0.1Q28-0.1 26.78-0.95 25.55-1.8 24.55-3.65L24.55-3.65Q24.4-3.9 23.1-6.65L23.1-6.65Q21.75-9.65 21.55-9.65L21.55-9.65Q21.35-9.65 20.55-7.3L20.55-7.3Q19.5-4.5 19.1-3.7L19.1-3.7Q17.3 0 14 0L14 0ZM62.55-0.3Q57.3-0.3 53.35-2.38 49.4-4.45 47.25-8.28 45.1-12.1 45.1-17.3L45.1-17.3Q45.1-22.55 47.3-26.68 49.5-30.8 53.42-33.13 57.35-35.45 62.4-35.45L62.4-35.45Q67.6-35.45 71.77-33.02 75.95-30.6 78.32-26.4 80.7-22.2 80.7-17.1L80.7-17.1Q80.7-12.05 78.37-8.25 76.05-4.45 71.95-2.38 67.85-0.3 62.55-0.3L62.55-0.3ZM62.85-6.8Q65.85-6.8 68.25-8 70.65-9.2 72.05-11.6 73.45-14 73.45-17.4L73.45-17.4Q73.45-20.75 72.12-23.38 70.8-26 68.35-27.48 65.9-28.95 62.7-28.95L62.7-28.95Q59.5-28.95 57.17-27.48 54.85-26 53.6-23.43 52.35-20.85 52.35-17.55L52.35-17.55Q52.35-12.35 55.27-9.58 58.2-6.8 62.85-6.8L62.85-6.8ZM97.15 0.15Q92.25 0.15 89.97-0.9 87.7-1.95 86.95-4.4 86.2-6.85 86.2-11.95L86.2-11.95Q86.2-17.7 86.72-22.5 87.25-27.3 88.15-32.6L88.15-32.6Q88.35-33.8 89.37-34.52 90.4-35.25 92-35.25L92-35.25Q93.7-35.25 94.57-34.43 95.45-33.6 95.45-32.2L95.45-32.2Q95.45-31.9 95.35-31.3L95.35-31.3Q94.3-25.15 93.75-20.83 93.2-16.5 93.2-11.75L93.2-11.75Q93.2-9.3 93.42-8.15 93.65-7 94.32-6.55 95-6.1 96.45-6.1L96.45-6.1Q99.55-6.1 107.15-7.5L107.15-7.5Q107.4-7.55 107.85-7.55L107.85-7.55Q109.15-7.55 109.92-6.58 110.7-5.6 110.7-4.3L110.7-4.3Q110.7-1.65 106.85-0.95L106.85-0.95Q103.4-0.3 101.62-0.08 99.85 0.15 97.15 0.15L97.15 0.15ZM129.74-28.75Q127.69-28.75 126.54-28.7L126.54-28.7Q126.74-24.3 126.79-20.85L126.79-20.85Q127.49-20.9 128.99-20.9L128.99-20.9Q131.84-20.9 133.72-20.8 135.59-20.7 137.04-20.35L137.04-20.35Q138.44-20 139.09-19.25 139.74-18.5 139.74-17.2L139.74-17.2Q139.74-15.75 138.97-14.85 138.19-13.95 136.59-14.1L136.59-14.1Q132.59-14.5 129.19-14.5L129.19-14.5Q127.54-14.5 126.79-14.45L126.79-14.45Q126.74-9.8 126.44-4.8L126.44-4.8 126.34-3.05Q126.24-1.7 125.32-0.88 124.39-0.05 122.69-0.05L122.69-0.05Q120.94-0.05 119.94-0.9 118.94-1.75 119.04-3.1L119.04-3.1Q119.49-8.7 119.54-13.95L119.54-13.95 118.44-13.8Q117.29-13.65 116.57-14.6 115.84-15.55 115.84-17.05L115.84-17.05Q115.84-18.65 116.67-19.33 117.49-20 118.99-20.25L118.99-20.25 119.49-20.35Q119.44-25.05 119.19-28.55L119.19-28.55 118.79-28.55Q117.19-28.55 116.44-29.25 115.69-29.95 115.69-31.7L115.69-31.7Q115.69-33.35 116.32-34.02 116.94-34.7 118.14-34.85L118.14-34.85 118.69-34.9Q118.64-35.05 118.64-35.25L118.64-35.25Q118.54-36.5 119.57-37.25 120.59-38 122.39-38L122.39-38Q125.69-38 125.99-35.3L125.99-35.3 125.99-35.15 130.04-35.15Q132.69-35.15 135.42-34.98 138.14-34.8 139.39-34.55L139.39-34.55Q140.94-34.25 141.59-33.43 142.24-32.6 142.24-31.35L142.24-31.35Q142.24-29.85 141.44-28.95 140.64-28.05 139.24-28.2L139.24-28.2Q133.99-28.75 129.74-28.75L129.74-28.75ZM193.99-16.1Q195.79-16.1 196.81-15.15 197.84-14.2 197.84-12.6L197.84-12.6Q197.84-8.95 195.81-6.03 193.79-3.1 190.24-1.45 186.69 0.2 182.29 0.2L182.29 0.2Q177.09 0.2 173.11-1.88 169.14-3.95 166.94-7.78 164.74-11.6 164.74-16.6L164.74-16.6Q164.74-21.9 166.81-26.28 168.89-30.65 172.49-33.18 176.09-35.7 180.44-35.7L180.44-35.7Q186.19-35.7 189.29-33L189.29-33 189.29-33.25Q189.29-34.2 190.24-34.9 191.19-35.6 192.64-35.6L192.64-35.6Q194.34-35.6 195.29-34.77 196.24-33.95 196.24-32.4L196.24-32.4 196.19-27.6Q196.09-23.2 192.59-23.2L192.59-23.2Q191.79-23.2 191.01-23.5 190.24-23.8 189.84-24.35L189.84-24.35Q188.54-26.1 187.74-27 186.94-27.9 185.64-28.55 184.34-29.2 182.44-29.2L182.44-29.2Q179.89-29.2 177.46-27.5 175.04-25.8 173.51-22.93 171.99-20.05 171.99-16.65L171.99-16.65Q171.99-13.65 173.36-11.3 174.74-8.95 177.11-7.63 179.49-6.3 182.29-6.3L182.29-6.3Q184.44-6.3 186.29-7.1 188.14-7.9 189.26-9.38 190.39-10.85 190.39-12.7L190.39-12.7Q190.39-14.2 191.34-15.15 192.29-16.1 193.99-16.1L193.99-16.1ZM233.59-19.25Q234.49-19.25 235.29-18.43 236.09-17.6 236.09-15.95L236.09-15.95Q236.09-14.3 235.29-13.5 234.49-12.7 233.54-12.7L233.54-12.7 233.14-12.7 233.39-3.35Q233.44-1.75 232.46-0.83 231.49 0.1 229.79 0.1L229.79 0.1Q228.14 0.1 227.14-0.78 226.14-1.65 226.09-3.15L226.09-3.15 225.79-12.8 213.03-13 212.19-2.25Q211.99 0.35 208.59 0.35L208.59 0.35Q206.69 0.35 205.74-0.43 204.78-1.2 204.89-2.75L204.89-2.75 205.69-13.1 205.39-13.1Q204.19-13.1 203.51-13.98 202.84-14.85 202.84-16.4L202.84-16.4Q202.84-17.95 203.59-18.78 204.34-19.6 205.59-19.6L205.59-19.6 206.24-19.6 207.28-33.1Q207.39-34.45 208.44-35.3 209.49-36.15 211.14-36.15L211.14-36.15Q212.89-36.15 213.78-35.15 214.69-34.15 214.59-32.55L214.59-32.55 213.53-19.5 225.59-19.35 225.19-32.75Q225.14-34.25 226.11-35.2 227.09-36.15 228.84-36.15L228.84-36.15Q230.49-36.15 231.49-35.23 232.49-34.3 232.54-32.95L232.54-32.95 232.94-19.25 233.59-19.25ZM269.93-8L270.68-5.4 271.28-3.45Q271.43-2.95 271.43-2.5L271.43-2.5Q271.43-1.05 270.21-0.25 268.98 0.55 267.33 0.55L267.33 0.55Q266.03 0.55 265.08 0 264.13-0.55 263.83-1.55L263.83-1.55 262.13-8 251.93-8.05 250.18-1.7Q249.88-0.55 248.96-0.03 248.03 0.5 246.73 0.5L246.73 0.5Q245.08 0.5 243.83-0.33 242.58-1.15 242.58-2.5L242.58-2.5Q242.58-3 242.73-3.5L242.73-3.5 248.48-20.8 251.28-29.35Q252.43-32.75 253.78-34.18 255.13-35.6 257.43-35.6L257.43-35.6Q259.63-35.6 260.91-34.33 262.18-33.05 263.23-29.8L263.23-29.8Q265.98-21.1 268.03-14.35L268.03-14.35 269.38-14.35Q271.83-14.35 271.83-11.2L271.83-11.2Q271.83-8 269.98-8L269.98-8 269.93-8ZM253.83-14.5L260.43-14.45 259.78-16.8 258.53-21.2 258.03-22.95Q257.73-24.05 257.53-24.55 257.33-25.05 257.13-25.05L257.13-25.05Q256.88-25.05 256.73-24.6 256.58-24.15 256.28-23L256.28-23 255.88-21.55 253.83-14.5ZM299.28-34.6Q300.78-34.45 301.63-33.73 302.48-33 302.48-31.3L302.48-31.3Q302.48-29.55 301.5-28.75 300.53-27.95 298.73-28.05L298.73-28.05Q295.13-28.3 292.83-28.3L292.83-28.3Q292.43-22.65 292.28-17L292.28-17Q292.13-11.4 292.13-2.8L292.13-2.8Q292.13-0.95 291.41-0.23 290.68 0.5 288.63 0.5L288.63 0.5Q286.48 0.5 285.53-0.25 284.58-1 284.58-2.75L284.58-2.75Q284.58-10.05 284.93-17L284.93-17 285.53-28.25Q283.33-28.15 281.98-28.05L281.98-28.05 279.78-27.9Q279.58-27.85 279.18-27.85L279.18-27.85Q277.73-27.85 276.83-28.8 275.93-29.75 275.93-31.3L275.93-31.3Q275.93-32.75 276.7-33.45 277.48-34.15 278.88-34.35L278.88-34.35Q280.68-34.6 283.93-34.75 287.18-34.9 289.93-34.9L289.93-34.9Q292.18-34.9 295.06-34.83 297.93-34.75 299.28-34.6L299.28-34.6Z" opacity="1" transform="matrix(1,0,0,1,0,0)" fill="#ffffff" class="undefined-text-0" data-fill-palette-color="primary" id="text-0"></path></svg></g></svg></g></svg></g></svg></g><g transform="matrix(1,0,0,1,135.98814321421315,0)"><svg viewBox="0 0 123.5437135715737 123.5437135715737" height="123.5437135715737" width="123.5437135715737"><g><svg></svg></g><g id="icon-0"><svg viewBox="0 0 123.5437135715737 123.5437135715737" height="123.5437135715737" width="123.5437135715737"><g><path d="M0 61.772c0-34.116 27.656-61.772 61.772-61.772 34.116 0 61.772 27.656 61.772 61.772 0 34.116-27.656 61.772-61.772 61.772-34.116 0-61.772-27.656-61.772-61.772zM61.772 118.968c31.589 0 57.196-25.608 57.196-57.196 0-31.589-25.608-57.196-57.196-57.196-31.589 0-57.196 25.608-57.196 57.196 0 31.589 25.608 57.196 57.196 57.196z" data-fill-palette-color="accent" fill="#ffffff" stroke="transparent"></path><ellipse rx="61.15413821792898" ry="61.15413821792898" cx="61.77185678578685" cy="61.77185678578685" fill="#ffffff" stroke="transparent" stroke-width="0" fill-opacity="1" data-fill-palette-color="accent"></ellipse></g><g transform="matrix(1,0,0,1,26.024596959018687,34.14891972788486)"><svg viewBox="0 0 71.49451965353633 55.245874115803986" height="55.245874115803986" width="71.49451965353633"><g><svg xmlns="http://www.w3.org/2000/svg" xmlns:xlink="http://www.w3.org/1999/xlink" version="1.1" x="0" y="0" viewBox="5.443 15.316 89.50100000000002 69.16000000000001" enable-background="new 0 0 100 100" xml:space="preserve" height="55.245874115803986" width="71.49451965353633" class="icon-n$-0" data-fill-palette-color="quaternary" id="n$-0"><path d="M87.62 33.304v2.902c2.507 0.452 4.423 2.641 4.423 5.28l-0.006 39.309-8.999-9.002H38.143c-2.625 0-4.809-1.893-5.276-4.38h-2.902c0.498 4.091 3.953 7.282 8.178 7.282h43.694l8.403 8.403c0.941 0.941 1.752 1.378 2.557 1.378 1.34 0 2.094-1.168 2.147-2.387V41.486C94.944 37.247 91.731 33.782 87.62 33.304z" fill="#551d18" data-fill-palette-color="quaternary"></path><path d="M76.014 64.512c4.809 0 8.704-3.899 8.704-8.705V24.021c0-4.807-3.896-8.705-8.704-8.705H14.148c-4.807 0-8.705 3.897-8.705 8.705v25.136 6.65 19.982c0 0 0.121 2.697 2.841-0.023l11.256-11.254H76.014z" fill="#551d18" data-fill-palette-color="quaternary"></path></svg></g></svg></g></svg></g></svg></g><g></g></svg></g><defs></defs></svg><rect width="395.52" height="198.24034352495806" fill="none" stroke="none" visibility="hidden"></rect></g></svg></g></svg>